<?xml version="1.0" standalone="no"?>
<!DOCTYPE svg PUBLIC "-//W3C//DTD SVG 1.1//EN" "http://www.w3.org/Graphics/SVG/1.1/DTD/svg11.dtd" >
<!--
2013-9-30: Created.
-->
<svg>
<metadata>
Created by iconfont
</metadata>
<defs>

<font id="iconfont" horiz-adv-x="1024" >
  <font-face
    font-family="iconfont"
    font-weight="500"
    font-stretch="normal"
    units-per-em="1024"
    ascent="896"
    descent="-128"
  />
    <missing-glyph />
    
    <glyph glyph-name="shouhuoxinxi" unicode="&#58949;" d="M511.909949 501.361077c-72.449056 0-131.190925-59.146075-131.190925-132.077108 0-72.939219 58.741869-132.077108 131.190925-132.077108 72.457242 0 131.198088 59.137889 131.198088 132.077108C643.108037 442.216026 584.366168 501.361077 511.909949 501.361077zM511.909949 303.243881c-36.226063 0-65.592904 29.565363-65.592904 66.040089 0 36.470633 29.367865 66.037019 65.592904 66.037019 36.231179 0 65.598021-29.566386 65.598021-66.037019C577.50797 332.810267 548.140105 303.243881 511.909949 303.243881zM512 750.807313c-247.869321 0-448.807772-200.938452-448.807772-448.807772S264.129656-146.809255 512-146.809255s448.807772 200.938452 448.807772 448.807772S759.869321 750.807313 512 750.807313zM511.909949 39.092735c0 0-196.783829 220.778312-196.783829 330.191234 0 109.403712 88.110757 198.114127 196.783829 198.114127 108.680235 0 196.790992-88.711438 196.790992-198.114127C708.700941 259.870024 511.909949 39.092735 511.909949 39.092735z"  horiz-adv-x="1024" />

    
    <glyph glyph-name="gerenxinxi" unicode="&#58895;" d="M852.846 616.594h315.1v63.927h-315.1z m315.1-220.38H821.978v63.928h348.307v-63.927z m-158.72-222.72h158.72v64h-158.72zM883.639-110.738H94.793a63.634 63.634 0 0 0-64 63.927 455.022 455.022 0 0 0 315.173 419.328c-75.85 47.396-128 132.68-128 227.474 0 149.211 120.905 267.703 267.703 267.703 149.284 0 267.702-120.905 267.702-267.703a262.583 262.583 0 0 0-127.853-227.474C803.182 313.27 933.449 149.87 940.544-46.811c7.095 0-21.285-63.927-56.832-63.927z m-396.58 54.491l-55.882 57.783 50.688 264.63-28.38 39.352c7.242 9.874 59.393 10.825 67.292 0l-28.452-39.351 50.688-264.631-55.955-57.783z"  horiz-adv-x="1170" />

    
    <glyph glyph-name="huiyuan" unicode="&#59046;" d="M232.382 577.239H341.52l87.568-315.624 91.136 315.624h85.95L473.98 135.829H363.817l-131.435 441.41z m515.501 0v-441.41H645.615v441.41h102.268z m87.833-441.41v441.41h172.462c38.482 0 67.914-4.162 88.328-12.453 20.38-8.292 38.648-23.123 54.668-44.462 16.02-21.339 24.048-47.533 24.048-78.584 0-21.768-4.295-43.008-12.85-63.719-8.522-20.711-20.612-36.963-36.203-48.822-15.591-11.858-30.753-19.72-45.354-23.618-14.666-3.864-37.59-5.813-68.773-5.813h-72.11v-163.94H835.717z m167.342 244.141c25.434 0 43.272 5.913 53.545 17.771a60.449 60.449 0 0 1 15.393 40.762c0 17.904-5.748 32.108-17.144 42.678-11.429 10.57-28.804 15.855-52.125 15.855h-66.329V379.97h66.66z m330.62-50.572a54.305 54.305 0 0 0-54.074 54.536V655.096c0 72.44-58.434 131.435-130.313 131.435h-910.5c-71.846 0-130.313-58.996-130.313-131.435v-542.258c0-72.473 58.467-131.435 130.312-131.435h910.501a130.94 130.94 0 0 1 127.67 104.877 53.909 53.909 0 0 0 63.818 42.513 54.503 54.503 0 0 0 42.116-64.38c-22.56-111.319-120.798-192.116-233.604-192.116h-910.5C107.32-127.703 0.33-19.786 0.33 112.838V655.096C0.33 787.72 107.32 895.636 238.79 895.636h910.5c131.502 0 238.46-107.916 238.46-240.54v-271.162c0-30.125-24.212-54.536-54.074-54.536z"  horiz-adv-x="1387" />

    
    <glyph glyph-name="anquanrenzheng_shouji-" unicode="&#58910;" d="M691.951063-51.98147H329.373085c-50.111415 0-90.614087 42.813636-90.614087 92.560161V728.272716c0 49.746526 40.502673 90.005939 90.614087 90.005939h362.577978c49.989785 0 90.614087-40.259413 90.614087-90.005939v-690.126618c0-49.746526-40.624302-90.127569-90.614087-90.127568z m-181.228174 60.206675c16.663262 0 30.164153 13.379261 30.164152 29.920893 0 16.663262-13.500891 30.164153-30.164152 30.164153-16.784891 0-30.285782-13.379261-30.285782-30.164153 0-16.663262 13.500891-29.920893 30.285782-29.920893z m60.328305 780.010928h-120.89987v-29.920894h120.89987V788.236133z m151.064022-59.963417H299.208932v-599.999049h423.027913V728.272716z m0 0"  horiz-adv-x="1024" />

    
    <glyph glyph-name="kaipiaoxinxi" unicode="&#59278;" d="M455.168-71.68H189.952C116.224-71.68 56.32-11.776 56.32 61.952v184.832c64 10.752 113.152 68.096 113.152 137.216S120.32 510.464 56.32 521.216V706.048C56.32 779.776 116.224 839.68 189.952 839.68h644.096c73.728 0 133.632-59.904 133.632-133.632v-293.888 142.848l-512.512-506.88V-71.68zM262.656 609.28c0-18.944 15.36-34.304 34.304-34.816h319.488c18.944 1.024 33.792 17.408 33.28 36.352-1.024 17.92-15.36 32.256-33.28 33.28H296.96c-18.944-0.512-34.304-15.872-34.304-34.816z m0-179.712c0-18.944 15.36-34.304 34.304-34.816h319.488c18.944 1.024 33.792 17.408 33.28 36.352-1.024 17.92-15.36 32.256-33.28 33.28H296.96c-18.944 0-34.304-15.36-34.304-34.816z m0-178.688c0-18.432 15.36-34.816 34.304-34.816h220.16c18.944 0 34.304 15.872 34.304 34.816 0 18.944-15.36 34.304-34.304 34.816H296.96c-18.944-0.512-34.304-15.872-34.304-34.816z m249.344-226.816l278.016 281.088 96.256-96.256-278.016-280.576H512v95.744z m447.488 258.56l-43.008-48.128-96.256 96.256 45.568 45.568c9.728 9.728 25.088 10.24 34.816 0.512l0.512-0.512 57.856-57.856c9.728-9.728 10.24-25.088 0.512-34.816 0.512-1.024 0-1.024 0-1.024z"  horiz-adv-x="1024" />

    
    <glyph glyph-name="yifahuo" unicode="&#59179;" d="M230.855832 804.562475c87.532589 0 158.492734-70.959122 158.492734-158.492734 0-87.531566-70.959122-158.490687-158.492734-158.490688-87.531566 0-158.490687 70.959122-158.490688 158.490688-0.001023 87.533612 70.959122 158.492734 158.490688 158.492734z m79.019704-143.478786v60.700477l-101.752451-90.726327-56.286958 50.363038v-60.700477l56.286958-50.360992 101.752451 90.724281z m630.934787-390.969482c-5.791913-0.315178-12.542664-0.481977-20.267603-0.481978h-177.543625c-4.501524 0-9.005095 2.254344-13.507642 6.756891-4.501524 4.50664-6.755868 8.364505-6.755868 11.582803v0.964978c-0.639566 31.520901-0.970094 60.143799-0.970094 85.883019v87.802742c0 7.077186 2.904143 13.674441 8.69094 19.781532 5.785773 6.110161 12.861936 9.16166 21.22644 9.16166 0.644683 0 5.466502 0.325411 14.475689 0.970095 9.005095 0.64366 20.101827 0.161682 33.293268-1.446955 13.187347-1.603521 27.175943-5.14723 41.971927-10.613732 14.791891-5.465478 28.622898-14.314007 41.490973-26.536377 19.943215-20.587897 34.094516-45.515636 42.453904-74.782193 8.365528-29.268604 16.09149-59.662845 23.156396-91.183746 0-1.288343 0.167822-2.25332 0.487094-2.899026 0.320295-0.639566 0.477884-1.608637 0.477884-2.89391 0.005117-7.724938-2.88777-11.745509-8.679683-12.065803z m75.748194-11.577687c-4.826935 36.34272-13.350053 73.498968-25.572422 111.450325-12.227486 37.95238-30.556946 73.661673-55.001684 107.102297-13.507642 18.657942-30.231535 34.739199-50.179866 48.24684a298.187333 298.187333 0 0 1-63.682392 32.81436c-22.51683 8.365528-45.352931 14.309914-68.51342 17.84646-23.156396 3.538593-45.352931 4.340865-66.581418 2.41091-7.070023-0.638543-13.024641-5.628184-17.851576-14.953574-4.821819-9.324366-7.232728-17.532305-7.232728-24.602328V73.749934c0-11.583826 4.177136-21.552875 12.542664-29.913287 8.365528-8.359388 18.329461-12.542664 29.912263-12.542664h17.3696c0 16.081257 3.055592 31.364335 9.1678 45.834908 6.115278 14.475689 14.475689 27.170826 25.090445 38.109969 10.617825 10.939143 22.99369 19.628036 37.150108 26.059516 14.151301 6.430456 29.586852 9.648754 46.311768 9.648754 16.731056 0 32.647561-2.25332 47.768957-6.756891 15.116279-4.502547 28.308743-11.577686 39.556924-21.22644 11.262508-9.648754 20.266579-22.191418 27.023471-37.633109 6.750751-15.440667 10.126638-34.099632 10.126638-55.966663H1003.529783c3.856841 0 6.91755 1.928932 9.171893 5.786797 2.243087 3.861958 4.178159 8.526187 5.78168 13.998829a98.240465 98.240465 0 0 1 3.381004 16.400528c0.64366 5.470595 0.963954 10.136871 0.963954 13.993712 0 19.943215 0.162706 45.678342 0.481978 77.19822 0.325411 31.511691-1.928932 65.443501-6.755868 101.792361h0.004093zM844.312548 90.159672c16.72594 0 31.201629-6.112208 43.423999-18.339694 12.222369-12.222369 18.334577-26.688849 18.334577-43.417859 0-17.365506-6.112208-32.161491-18.334577-44.379766-12.222369-12.227486-26.693965-18.339694-43.423999-18.339694-17.364483 0-32.002878 6.112208-43.900859 18.339694-11.902074 12.222369-17.851577 27.013237-17.851577 44.379766 0 16.730033 5.949502 31.195489 17.851577 43.417859 11.897981 12.227486 26.53126 18.339694 43.900859 18.339694z m-663.872966 0.959861c-17.369599 0-32.007995-6.112208-43.905976-18.329461-11.904121-12.222369-17.851577-27.013237-17.851576-44.393069 0-16.715707 5.948479-31.191396 17.851576-43.419905 11.897981-12.222369 26.536376-18.334577 43.905976-18.334578s32.002878 6.112208 43.905976 18.334578c11.904121 12.227486 17.84646 26.699082 17.84646 43.419905 0 17.369599-5.948479 32.1707-17.84646 44.393069-11.903098 12.217253-26.536376 18.329461-43.905976 18.329461z m246.520603 605.01751c4.793166-17.044188 7.209192-34.778084 7.209192-53.195549 0-28.091802-5.343705-54.362118-16.037255-78.793554-10.68741-24.430412-25.193799-45.805232-43.513026-64.129576-18.324344-18.319228-39.693024-32.677237-64.129576-43.060725-24.434505-10.377348-50.386574-15.568581-77.872578-15.568581-28.096918 0-54.357002 5.191232-78.788438 15.568581-24.431435 10.383488-45.805232 24.741497-64.129576 43.060725-18.324344 18.324344-32.825616 39.700187-43.513026 64.129576-10.692526 24.431435-16.037255 50.696636-16.037255 78.793554 0 3.069919 0.079818 6.115278 0.206708 9.147334-9.195429-11.282974-16.433274-23.613814-21.678742-37.007869-5.791913-14.790868-8.685823-29.912263-8.685823-45.352931v-501.764891c0-12.222369 3.538593-21.552875 10.613732-27.983331 7.080256-6.426363 16.084327-9.648754 27.018354-9.648754h22.196534c0 41.169655 10.456143 71.889307 31.359219 92.146676 20.902052 20.267603 50.981115 30.404474 90.218768 30.404474 41.174772 0 71.411423-10.939143 90.705861-32.815383 19.298532-21.871123 28.952402-51.783387 28.952402-89.735767H564.480258c10.298554 0 19.135826 3.53757 26.536377 10.617825 7.395434 7.072069 11.096732 16.07614 11.096732 27.01426l-1.928932 628.173906H426.960185z m0 0"  horiz-adv-x="1024" />

    
    <glyph glyph-name="dingwei" unicode="&#58898;" d="M507 796.7h38.1c8.8-1 17.6-1.9 26.4-3.2 67.6-9.5 126.6-37.1 175.6-84.8 41.4-40.4 68.2-88.8 78.4-146.1 1.6-9.1 2.6-18.2 3.9-27.4v-34.9c-0.3-1.4-0.8-2.8-0.9-4.2-2.4-30.9-9.6-60.8-20.5-89.8-25.3-67.1-67.1-122.5-121.5-168.5C628.6 189 578.9 133.2 538 69.5c-1.8-2.7-3.7-5.4-5.8-7.9-5.1-6-7.6-6.2-12.4 0-5.6 7.3-10.6 15.1-16 22.7-37.6 53.4-81.4 101.2-129.3 145.3-30.8 28.4-59.3 58.7-83.1 93.3-30.8 44.7-53.5 92.9-63.9 146.4-2.1 11-3.3 22.1-5 33.2v31.6c0.3 1.7 0.8 3.5 0.9 5.2 2.2 27.9 8.5 54.9 20.3 80.3 45.6 97.9 124 152.7 228.6 172.6 11.6 2.2 23.2 3 34.7 4.5z m-85.2-282.5c-0.2-58 46.1-105 103.8-105.3 58.1-0.3 105.4 46.3 105.7 104.1 0.3 58.4-46.4 105.7-104.4 106-58 0.2-104.9-46.7-105.1-104.8zM499.3-32.3c-10.6 1.1-21.3 2-31.8 3.3-39.3 4.9-77.4 14-112.2 33.8-12.7 7.2-24.2 16-33.6 27.3-22.2 26.9-22.4 58.2 0.3 84.6 7.7 8.9 17.3 16.2 26.5 24.6 8.7-10.2 16.4-19.1 24.4-28.5-1.7-1.2-3.4-2.1-4.8-3.4-7.2-6.3-15.1-12-21.2-19.3-8.5-10.3-8.6-21.6-0.1-31.9 6.2-7.4 13.7-14.1 21.8-19.4 22-14.3 46.8-22 72.4-27.2 64.6-13 128.7-11.7 192.1 7.1 18 5.3 35.4 12.3 50.5 23.7 6.6 4.9 12.6 11 17.6 17.5 6.9 9.2 6.7 19.6-0.5 28.7-4.9 6.2-11.2 11.3-16.9 16.7-1.4 1.3-3.1 2.3-4.5 3.3 8.6 8.7 16.9 17.2 25.3 25.7 34.2-21.7 49.1-60.9 25.9-95.3-13.2-19.6-32.3-32.1-53.2-42-31.1-14.8-64.2-22.4-98.3-26.4-10.6-1.3-21.2-2.2-31.9-3.3-15.8 0.4-31.8 0.4-47.8 0.4z"  horiz-adv-x="1024" />

    
    <glyph glyph-name="heziwenjiangongzuocaidanmianxing" unicode="&#59829;" d="M938.666667 593.976889V156.444444a28.444444 28.444444 0 0 0-15.729778-25.429333L540.444444-60.245333v455.111111l398.222223 199.111111z m-28.444445 49.379555l-398.222222-199.111111-398.222222 199.111111 385.507555 192.739556a28.444444 28.444444 0 0 0 25.429334 0L910.222222 643.356444zM85.333333 593.976889l398.222223-199.111111v-455.111111L101.063111 131.015111A28.444444 28.444444 0 0 0 85.333333 156.444444V593.976889z m129.507556-178.517333l142.222222-71.111112a28.444444 28.444444 0 0 1 25.429333 50.858667l-142.222222 71.111111a28.444444 28.444444 0 0 1-25.429333-50.858666z"  horiz-adv-x="1024" />

    
    <glyph glyph-name="dingdandefuben" unicode="&#58925;" d="M827.904-73.216H195.072c-22.016 0-39.424 17.92-39.424 39.424V678.4c0 22.016 17.92 39.424 39.424 39.424h79.36v-39.424c0-22.016 17.92-39.424 39.424-39.424h395.776c22.016 0 39.424 17.92 39.424 39.424v39.424h79.36c22.016 0 39.424-17.92 39.424-39.424v-712.192c-0.512-21.504-18.432-39.424-39.936-39.424zM689.152 678.4H333.312c-10.752 0-19.968 8.704-19.968 19.968v39.424c0 10.752 8.704 19.968 19.968 19.968h98.816c0 43.52 35.328 79.36 79.36 79.36 43.52 0 79.36-35.328 79.36-79.36h98.816c10.752 0 19.968-8.704 19.968-19.968v-39.424c-0.512-11.264-9.216-19.968-20.48-19.968zM511.488 777.216c-10.752 0-19.968-8.704-19.968-19.968s8.704-19.968 19.968-19.968c10.752 0 19.968 8.704 19.968 19.968s-9.216 19.968-19.968 19.968z m66.56-316.416H411.648V527.36l-133.12-99.84 133.12-99.84V394.24h166.4c56.32 0 99.84-43.008 99.84-99.84 0-56.32-43.008-99.84-99.84-99.84H411.648v-66.56h166.4c89.6 0 166.4 73.216 166.4 166.4S671.232 460.8 578.048 460.8z"  horiz-adv-x="1024" />

    
    <glyph glyph-name="zunxiangfuwu_normal" unicode="&#59124;" d="M835.584 117.76c-110.592-22.528-223.232-32.768-333.824-32.768s-212.992 10.24-311.296 30.72h-6.144c-18.432 0-34.816-14.336-34.816-34.816v-10.24c0-18.432 14.336-36.864 32.768-40.96 108.544-22.528 215.04-34.816 323.584-34.816 108.544 0 221.184 12.288 339.968 34.816 18.432 4.096 32.768 20.48 32.768 40.96v10.24 6.144c-6.144 22.528-24.576 34.816-43.008 30.72zM919.552 599.04c-24.576 0-43.008-18.432-43.008-43.008 0-8.192 2.048-16.384 6.144-22.528l-180.224-98.304c-10.24-6.144-20.48-2.048-26.624 8.192l-129.024 210.944c16.384 10.24 28.672 30.72 28.672 51.2 0 34.816-26.624 61.44-61.44 61.44s-61.44-26.624-61.44-61.44c0-20.48 10.24-38.912 24.576-49.152l-135.168-212.992c-6.144-8.192-18.432-12.288-26.624-6.144l-172.032 96.256c4.096 6.144 6.144 14.336 6.144 22.528 0 24.576-18.432 43.008-43.008 43.008s-43.008-18.432-43.008-43.008 18.432-43.008 43.008-43.008h2.048l79.872-321.536c2.048-8.192 8.192-12.288 14.336-14.336 100.352-24.576 200.704-34.816 301.056-34.816 100.352 0 208.896 12.288 321.536 36.864 8.192 2.048 14.336 8.192 16.384 14.336l75.776 321.536h2.048c24.576 0 43.008 18.432 43.008 43.008s-18.432 40.96-43.008 40.96z"  horiz-adv-x="1024" />

    
    <glyph glyph-name="quanbudingdan" unicode="&#59550;" d="M777.309091 188.509091c0 4.654545-4.654545 9.309091-9.309091 9.309091H377.018182c-4.654545-4.654545-4.654545-4.654545-4.654546-9.309091v-46.545455c0-4.654545 4.654545-9.309091 9.309091-9.309091h390.981818c4.654545 0 9.309091 4.654545 9.309091 9.309091v46.545455z m0 218.763636c0 4.654545-4.654545 9.309091-9.309091 9.309091H377.018182c-4.654545 0-4.654545-4.654545-4.654546-9.309091v-46.545454c0-4.654545 4.654545-9.309091 9.309091-9.309091h390.981818c4.654545 0 9.309091 4.654545 9.309091 9.309091v46.545454z m0 223.418182c0 4.654545-4.654545 9.309091-9.309091 9.309091H377.018182c-4.654545-4.654545-4.654545-4.654545-4.654546-9.309091v-46.545454c0-9.309091 0-9.309091 4.654546-9.309091h390.981818c4.654545 0 9.309091 4.654545 9.309091 9.309091v46.545454zM307.2 188.509091c0 4.654545-4.654545 9.309091-9.309091 9.309091h-46.545454c-4.654545 0-9.309091-4.654545-9.309091-9.309091v-46.545455c0-4.654545 4.654545-9.309091 9.309091-9.309091h46.545454c4.654545 0 9.309091 4.654545 9.309091 9.309091v46.545455z m0 218.763636c0 4.654545-4.654545 9.309091-9.309091 9.309091h-46.545454c-4.654545 0-9.309091-4.654545-9.309091-9.309091v-46.545454c0-4.654545 4.654545-9.309091 9.309091-9.309091h46.545454c4.654545 0 9.309091 4.654545 9.309091 9.309091v46.545454z m0 223.418182c0 4.654545-4.654545 9.309091-9.309091 9.309091h-46.545454c-4.654545 0-9.309091-4.654545-9.309091-9.309091v-46.545454c0-4.654545 4.654545-9.309091 9.309091-9.309091h46.545454c4.654545 0 9.309091 4.654545 9.309091 9.309091v46.545454z m-186.181818-595.781818v698.181818c0 51.2 41.890909 93.090909 93.090909 93.090909h600.436364c51.2 0 93.090909-41.890909 93.090909-93.090909v-698.181818c0-51.2-41.890909-93.090909-93.090909-93.090909H214.109091c-51.2 0-93.090909 41.890909-93.090909 93.090909z"  horiz-adv-x="1024" />

    
    <glyph glyph-name="piao" unicode="&#58884;" d="M933.946117 268.431331a55.583376 55.583376 0 0 0-1.977404 14.826608 55.415799 55.415799 0 0 0 8.248334 29.064913 55.887866 55.887866 0 0 0 8.087889 10.227878h-0.004279a98.00878 98.00878 0 0 1 4.668613 4.99093c15.357148 17.562028 24.685816 40.548546 24.73502 65.729248-0.049203 25.180702-9.377872 48.166507-24.73502 65.730674a101.39668 101.39668 0 0 1-4.668613 4.989504 56.034763 56.034763 0 0 0-8.08361 10.222173 55.468568 55.468568 0 0 0-8.251186 29.06634 55.72956 55.72956 0 0 0 1.980256 14.828033 55.595499 55.595499 0 0 0 14.19766 24.526084c18.041226 18.150329 29.171877 43.197682 29.11483 70.835699-0.049203 23.370162-12.048401 110.694685-88.126039 110.694685h-754.27298c-76.075499 0-88.075409-87.324524-88.125326-110.694685-0.052769-27.638017 11.072891-52.68537 29.113404-70.835699a55.57268 55.57268 0 0 0 14.198373-24.526084 55.69961 55.69961 0 0 0 1.97883-14.828033c-0.019253-10.66429-3.040624-20.612635-8.249047-29.06634a55.899989 55.899989 0 0 0-8.087176-10.222173 103.093838 103.093838 0 0 1-4.665047-4.989504c-15.357148-17.564167-24.685816-40.549972-24.734307-65.730674 0.04849-25.180702 9.377159-48.16722 24.734307-65.729248a99.979766 99.979766 0 0 1 4.670039-4.99093 55.82654 55.82654 0 0 0 8.082184-10.227878c5.208423-8.452279 8.229794-18.400624 8.253326-29.064913a55.857916 55.857916 0 0 0-1.983109-14.826608 55.537738 55.537738 0 0 0-14.193382-24.527509c-18.044791-18.150329-29.171164-43.195543-29.118395-70.832847 0.049916-23.37444 12.049114-110.693972 88.125326-110.693972H889.136847c76.077638 0 88.077549 87.320245 88.126039 110.693972 0.052769 27.636591-11.075031 52.682518-29.119109 70.836412a55.596212 55.596212 0 0 0-14.19766 24.523944zM665.873471 522.556613H568.839487v-34.703332h77.630039c4.157326 0 8.315365-2.774641 11.087154-5.552133 4.159465-2.777493 5.546429-6.94195 5.546429-11.104981v-45.811164c0-2.775354-1.386251-5.555699-2.772502-8.331766v-1.387677c-2.773928-4.162318-8.31893-6.939097-13.861081-6.939098h-275.852479c-5.54429 0-11.091432 2.77678-13.86322 8.326775V418.44234c-1.385538 2.778919-2.770362 5.554273-2.770362 8.33034v48.586518c0 4.164457 2.770362 8.33034 5.542151 11.106406 2.773214 2.776067 6.933393 4.164457 11.091431 4.164457h73.467009v34.706184H358.139365c-11.090719 0-19.40537 8.327487-19.405371 18.045504 0 8.328914 8.314652 16.65854 19.405371 16.658541h306.349281c11.089292 0 19.406084-8.329627 20.791621-19.433181 0-9.71873-8.315365-18.050496-19.406796-18.050496z m-221.789415-61.080602h-55.447176v-22.209961h55.447176v22.209961z m88.717192 63.860234v1.386964h-54.062351v-34.706184h54.062351v33.31922z m1.384824-63.860234h-55.447888v-22.209961h55.447888v22.209961z m33.267878-22.209961l60.992891-1.386251v22.209248h-60.992891v-20.822997z m72.082184-88.842696H387.249916c-9.700903 0-18.019833 6.939811-18.019832 16.657827 0 9.717304 8.31893 16.657827 18.019832 16.657827h252.286218c9.704468 0 18.020546-6.939811 18.020546-16.657827 0.000713-9.718017-8.316078-16.657827-18.020546-16.657827z m-281.396769-13.8839H654.784891c9.703755 0 18.018407-6.941237 18.018407-16.657827 0-9.718017-8.314652-16.657827-18.018407-16.657828H530.028033v-63.85952c0-9.715164-6.931967-18.044791-16.632869-18.044792-9.703755 0-16.634295 8.329627-16.634295 18.044792v63.85952H358.139365c-9.700903 0-18.018407 6.939811-18.018407 16.657828 0 9.716591 8.317504 16.657827 18.018407 16.657827z m-1.385538-79.128245l58.221103 33.318507c2.771075 1.389103 5.543577 2.77678 9.703755 2.77678 5.543577 0 12.476969-4.16517 15.248045-8.331053 2.771788-4.163744 2.771788-9.715877 1.386251-13.882474-1.386251-4.163031-5.546429-8.327487-9.704468-11.103554l-58.22039-33.31922c-2.771075-1.387677-5.543577-2.774641-9.70019-2.774641-6.934106 0-12.476256 2.774641-15.249471 8.33034-1.389816 4.162318-2.775354 8.326774-1.389816 12.494084 1.389816 5.551421 5.547855 9.714451 9.705181 12.491231z m230.108346 36.095287c2.772501 0 6.929827-1.387677 9.703041-2.77678l59.605215-33.318507c8.318217-5.551421 12.47483-16.657827 6.93268-24.984602-2.772501-5.556412-8.31893-8.33034-15.248045-8.33034-2.773214 0-6.93268 1.386251-9.704468 2.774641l-58.219677 33.31922c-9.703042 5.552134-12.477682 16.657827-8.315365 24.986028 2.770362 5.55356 8.315365 8.33034 15.246619 8.33034z"  horiz-adv-x="1024" />

    
    <glyph glyph-name="een" unicode="&#59848;" d="M450.67137048 658.96282676L450.67137048 658.96282676c16.07805352 15.93877002 38.42158158 25.25921197 61.25608633 25.25921198l0 0c22.98307446 0 45.25347746-9.31928157 61.40465603-25.25921198l419.6404603-419.78670931 0 0c33.87510834-33.86698358 33.87510834-88.86688158 0-122.73270479l0 0c-33.92966204-33.79385964-88.72063369-33.79385964-122.58645691 0L511.92745569 474.68850315 153.75665061 116.44341266000004l0 0c-34.01091076-33.7985022-88.79723985-33.7985022-122.73270481 0.14508752l0 0c-33.87278761 33.72189607-33.87278761 88.72179406 0 122.58761727L450.67137048 658.96282676 450.67137048 658.96282676zM450.67137048 658.96282676"  horiz-adv-x="1024" />

    
    <glyph glyph-name="daifahuo" unicode="&#58886;" d="M960.4 622.6H64.5l46.1 134.3c8 23.4 31.2 39.2 57.3 39.2H857c26.1 0 49.2-15.8 57.3-39.2l46.1-134.3zM64.5 622.6v-548.7c0-31 25.1-56.1 56.1-56.1h783.7c31 0 56.1 25.1 56.1 56.1V622.6H64.5zM391.1 158H194.2c-19.3 0-35.1 15.7-35.1 35.1s15.7 35.1 35.1 35.1H391c19.3 0 35.1-15.7 35.1-35.1s-15.7-35.1-35-35.1z m104.7 166.5H194.2c-19.3 0-35.1 15.7-35.1 35.1s15.7 35.1 35.1 35.1h301.5c19.3 0 35.1-15.7 35.1-35.1s-15.7-35.1-35-35.1zM863.4 348l-64.7-64.7c-4.1-4.1-9.4-6.1-14.8-6.1s-10.7 2-14.8 6.1c-8.2 8.2-8.2 21.4 0 29.5l24.2 24.2H665.4c-11.5 0-20.9 9.3-20.9 20.9s9.3 20.9 20.9 20.9h131.4l-27.6 27.6c-8.2 8.2-8.2 21.4 0 29.5 8.2 8.2 21.4 8.2 29.5 0l64.7-64.7c6.4-6.4 6.4-16.8 0-23.2z"  horiz-adv-x="1024" />

    
    <glyph glyph-name="daifukuan" unicode="&#58887;" d="M901.1 796.5H122.5c-32 0-57.9-25.9-57.9-57.9v-174.3h894.7v174c0 32.1-26.1 58.2-58.2 58.2zM64.6 564.3v-544.9c0-32.6 26.4-59 59-59h774.9c33.6 0 60.8 27.2 60.8 60.8v543H64.6z m793.7-187.5c0-17.3-14-31.4-31.4-31.4h-99.6c-17.3 0-31.4 14-31.4 31.4v40c0 17.3 14 31.4 31.4 31.4h99.6c17.3 0 31.4-14 31.4-31.4v-40z"  horiz-adv-x="1024" />

    
    <glyph glyph-name="fuwu" unicode="&#58950;" d="M983.04 656.7936a218.7264 218.7264 0 0 1-437.4528 0v-218.5216h218.7264A218.7264 218.7264 0 0 1 983.04 656.7936zM40.96 152.1664a218.7264 218.7264 0 1 1 437.248 0V370.688H259.6864A218.7264 218.7264 0 0 1 40.96 152.1664zM764.3136 370.688H545.5872v-218.5216a218.7264 218.7264 0 1 1 218.7264 218.5216zM259.6864 875.52a218.7264 218.7264 0 1 1 0-437.248h218.7264V656.7936A218.7264 218.7264 0 0 1 259.6864 875.52z"  horiz-adv-x="1024" />

    
    <glyph glyph-name="down" unicode="&#58880;" d="M573.32862952 109.03717324000002L573.32862952 109.03717324000002c-16.07805352-15.93877002-38.42158158-25.25921197-61.25608633-25.25921198l0 0c-22.98307446 0-45.25347746 9.31928157-61.40465603 25.25921198l-419.6404603 419.78670931 0 0c-33.87510834 33.86698358-33.87510834 88.86688158 0 122.73270479l0 0c33.92966204 33.79385964 88.72063369 33.79385964 122.58645691 0L512.07254431 293.31149685 870.24334939 651.55658734l0 0c34.01091076 33.7985022 88.79723985 33.7985022 122.73270481-0.14508752l0 0c33.87278761-33.72189607 33.87278761-88.72179406 0-122.58761727L573.32862952 109.03717324000002 573.32862952 109.03717324000002zM573.32862952 109.03717324000002"  horiz-adv-x="1024" />

    
    <glyph glyph-name="xiaoxi" unicode="&#58993;" d="M836.033 107.2l6-6 117.8-117.8h-235.6l-206.5-0.2h-5.8c-247.4 0-448 179.5-448 400.8s200.6 400.8 448 400.8 448-179.5 448-400.8c0.1-107.4-47.1-204.9-123.9-276.8z m-182.6 206.1c39.1 0 70.7 31.7 70.7 70.7s-31.7 70.7-70.7 70.7c-39.1 0-70.7-31.7-70.7-70.7s31.7-70.7 70.7-70.7z m-282.9 0c39.1 0 70.7 31.7 70.7 70.7s-31.7 70.7-70.7 70.7-70.7-31.7-70.7-70.7 31.6-70.7 70.7-70.7z"  horiz-adv-x="1024" />

    
    <glyph glyph-name="mima" unicode="&#58897;" d="M788.082 460.8c41.586 0 75.292-34.39 75.292-76.8v-358.4c0-42.41-33.706-76.8-75.292-76.8H235.918c-41.586 0-75.292 34.39-75.292 76.8V384c0 42.41 33.706 76.8 75.292 76.8h552.164z m0 76.8H235.918c-83.171 0-150.585-68.779-150.585-153.6v-358.4c0-84.821 67.414-153.6 150.585-153.6h552.164c83.171 0 150.585 68.779 150.585 153.6V384c0 84.821-67.414 153.6-150.585 153.6zM512 819.2c97.024 0 175.673-80.213 175.673-179.2v-102.4H336.327V640c0 98.987 78.649 179.2 175.673 179.2zM512 896C373.39 896 261.006 781.369 261.006 640v-179.2h501.988V640C762.994 781.369 650.638 896 512 896z m0-806.4c-20.793 0-37.66 17.18-37.66 38.4V281.6c0 21.22 16.867 38.4 37.66 38.4 20.793 0 37.66-17.18 37.66-38.4V128c0-21.22-16.867-38.4-37.66-38.4z"  horiz-adv-x="1024" />

    
    <glyph glyph-name="qianbao" unicode="&#59018;" d="M705.941333 309.824a42.112 42.112 0 1 0 84.266667 0.106667v-0.106667a42.112 42.112 0 1 0-84.266667 0z m11.84-92.8h263.402667v-202.218667a72.746667 72.746667 0 0 0-72.533333-72.533333H115.2A72.746667 72.746667 0 0 0 42.666667 14.826667V558.293333a72.746667 72.746667 0 0 0 72.533333 72.533334h793.472a72.746667 72.746667 0 0 0 72.512-72.533334v-149.866666H717.781333a72.746667 72.746667 0 0 1-72.512-72.512v-46.357334a72.746667 72.746667 0 0 1 72.533334-72.533333z m129.792 459.818667H370.24L672.554667 843.946667a72.661333 72.661333 0 0 0 98.474666-28.437334l76.544-138.645333z"  horiz-adv-x="1024" />

    


  </font>
</defs>
</svg>
